# xmcd CD database file
# Copyright (C) 1993-1998 Ti Kan
#
# Track frame offsets:
#	150
#	20306
#	43457
#	65272
#	77108
#	109864
#	131035
#	159385
#	174453
#	204203
#	214851
#	228192
#	257380
#	274476
#
# Disc length: 3949 seconds
#
# Revision: 1
# Processed by: cddbd v1.4b41PL1 Copyright (c) Steve Scherf et al.
# Submitted via: NotifyCDPlayer(CDDB) 1.51.2
#
DISCID=bf0f6b0e
DTITLE=The Soulful Heavenly Stars - Say Amen
DYEAR=1900
DGENRE=
TTITLE0=Medley - Say Amen
TTITLE1=Kum Ba Ya
TTITLE2=Go Down Moses
TTITLE3=My God Told Ezekiel
TTITLE4=I Know That You Care
TTITLE5=I Know it Was the Blood
TTITLE6=In the Garden
TTITLE7=I'm Lookin' For That Man
TTITLE8=What a Wonderful World
TTITLE9=That's Alright
TTITLE10=Go Where I Send Thee
TTITLE11=Roll Jordan Roll
TTITLE12=Nobdy Know the Trouble I See
TTITLE13=Something On the Inside
EXTD=
EXTT0=
EXTT1=
EXTT2=
EXTT3=
EXTT4=
EXTT5=
EXTT6=
EXTT7=
EXTT8=
EXTT9=
EXTT10=
EXTT11=
EXTT12=
EXTT13=
PLAYORDER=
